<?xml version="1.0" encoding="UTF-8" standalone="no"?>
<!DOCTYPE svg PUBLIC "-//W3C//DTD SVG 1.1//EN"
 "http://www.w3.org/Graphics/SVG/1.1/DTD/svg11.dtd">
<!-- Generated by graphviz version 2.43.0 (0)
 -->
<!-- Title: %3 Pages: 1 -->
<svg width="498pt" height="435pt"
 viewBox="0.00 0.00 497.79 435.00" xmlns="http://www.w3.org/2000/svg" xmlns:xlink="http://www.w3.org/1999/xlink">
<g id="graph0" class="graph" transform="scale(1 1) rotate(0) translate(4 431)">
<title>%3</title>
<polygon fill="white" stroke="transparent" points="-4,4 -4,-431 493.79,-431 493.79,4 -4,4"/>
<text text-anchor="middle" x="244.9" y="-7.8" font-family="Times,serif" font-size="14.00">test_max</text>
<!-- 140108667580928 -->
<g id="node1" class="node">
<title>140108667580928</title>
<polygon fill="none" stroke="black" points="202.15,-414.56 137,-427 71.85,-414.56 71.91,-394.44 202.09,-394.44 202.15,-414.56"/>
<text text-anchor="middle" x="137" y="-405.3" font-family="Times,serif" font-size="14.00">test_max</text>
</g>
<!-- 140108667581408 -->
<g id="node3" class="node">
<title>140108667581408</title>
<polygon fill="none" stroke="black" points="65,-294 100.19,-328.5 29.81,-328.5 65,-294"/>
<text text-anchor="middle" x="65" y="-313.3" font-family="Times,serif" font-size="14.00">C</text>
</g>
<!-- 140108667580928&#45;&gt;140108667581408 -->
<g id="edge1" class="edge">
<title>140108667580928&#45;&gt;140108667581408</title>
<path fill="none" stroke="black" d="M126.06,-394.33C113.8,-379 93.84,-354.05 80.1,-336.87"/>
<polygon fill="black" stroke="black" points="82.53,-334.31 73.55,-328.69 77.07,-338.69 82.53,-334.31"/>
<text text-anchor="middle" x="113" y="-361.8" font-family="Times,serif" font-size="14.00">0</text>
</g>
<!-- 140108667582288 -->
<g id="node6" class="node">
<title>140108667582288</title>
<polygon fill="none" stroke="black" points="177,-294 212.19,-328.5 141.81,-328.5 177,-294"/>
<text text-anchor="middle" x="177" y="-313.3" font-family="Times,serif" font-size="14.00">C</text>
</g>
<!-- 140108667580928&#45;&gt;140108667582288 -->
<g id="edge4" class="edge">
<title>140108667580928&#45;&gt;140108667582288</title>
<path fill="none" stroke="black" d="M143.08,-394.33C149.7,-379.43 160.37,-355.42 167.97,-338.31"/>
<polygon fill="black" stroke="black" points="171.39,-339.25 172.25,-328.69 164.99,-336.41 171.39,-339.25"/>
<text text-anchor="middle" x="164" y="-361.8" font-family="Times,serif" font-size="14.00">0</text>
</g>
<!-- 140108667571648 -->
<g id="node2" class="node">
<title>140108667571648</title>
<polygon fill="none" stroke="black" points="54,-427 0,-427 0,-391 54,-391 54,-427"/>
<text text-anchor="middle" x="27" y="-405.3" font-family="Times,serif" font-size="14.00">&#39;a&#39;</text>
</g>
<!-- 140108667571648&#45;&gt;140108667581408 -->
<g id="edge2" class="edge">
<title>140108667571648&#45;&gt;140108667581408</title>
<path fill="none" stroke="black" d="M34.33,-390.65C40.7,-375.56 49.92,-353.71 56.59,-337.92"/>
<polygon fill="black" stroke="black" points="59.88,-339.12 60.55,-328.54 53.43,-336.4 59.88,-339.12"/>
<text text-anchor="middle" x="53" y="-361.8" font-family="Times,serif" font-size="14.00">1</text>
</g>
<!-- 140108669625328 -->
<g id="node4" class="node">
<title>140108669625328</title>
<ellipse fill="none" stroke="black" cx="65" cy="-225" rx="46.59" ry="18"/>
<text text-anchor="middle" x="65" y="-221.3" font-family="Times,serif" font-size="14.00">getitem</text>
</g>
<!-- 140108667581408&#45;&gt;140108669625328 -->
<g id="edge3" class="edge">
<title>140108667581408&#45;&gt;140108669625328</title>
<path fill="none" stroke="black" d="M65,-293.75C65,-281.55 65,-266.32 65,-253.4"/>
<polygon fill="black" stroke="black" points="68.5,-253.2 65,-243.2 61.5,-253.2 68.5,-253.2"/>
<text text-anchor="middle" x="77.5" y="-264.8" font-family="Times,serif" font-size="14.00">arg</text>
</g>
<!-- 140108667583168 -->
<g id="node8" class="node">
<title>140108667583168</title>
<polygon fill="none" stroke="black" points="120,-110 155.19,-144.5 84.81,-144.5 120,-110"/>
<text text-anchor="middle" x="120" y="-129.3" font-family="Times,serif" font-size="14.00">C</text>
</g>
<!-- 140108669625328&#45;&gt;140108667583168 -->
<g id="edge7" class="edge">
<title>140108669625328&#45;&gt;140108667583168</title>
<path fill="none" stroke="black" d="M75.35,-207.07C84.71,-191.75 98.49,-169.19 108.27,-153.2"/>
<polygon fill="black" stroke="black" points="111.26,-155.01 113.49,-144.65 105.29,-151.36 111.26,-155.01"/>
<text text-anchor="middle" x="100" y="-177.8" font-family="Times,serif" font-size="14.00">0</text>
</g>
<!-- 140108667572768 -->
<g id="node5" class="node">
<title>140108667572768</title>
<polygon fill="none" stroke="black" points="274,-427 220,-427 220,-391 274,-391 274,-427"/>
<text text-anchor="middle" x="247" y="-405.3" font-family="Times,serif" font-size="14.00">&#39;b&#39;</text>
</g>
<!-- 140108667572768&#45;&gt;140108667582288 -->
<g id="edge5" class="edge">
<title>140108667572768&#45;&gt;140108667582288</title>
<path fill="none" stroke="black" d="M233.5,-390.65C221.44,-375.13 203.8,-352.46 191.45,-336.58"/>
<polygon fill="black" stroke="black" points="194.1,-334.29 185.2,-328.54 188.58,-338.59 194.1,-334.29"/>
<text text-anchor="middle" x="224" y="-361.8" font-family="Times,serif" font-size="14.00">1</text>
</g>
<!-- 140108669625424 -->
<g id="node7" class="node">
<title>140108669625424</title>
<ellipse fill="none" stroke="black" cx="177" cy="-225" rx="46.59" ry="18"/>
<text text-anchor="middle" x="177" y="-221.3" font-family="Times,serif" font-size="14.00">getitem</text>
</g>
<!-- 140108667582288&#45;&gt;140108669625424 -->
<g id="edge6" class="edge">
<title>140108667582288&#45;&gt;140108669625424</title>
<path fill="none" stroke="black" d="M177,-293.75C177,-281.55 177,-266.32 177,-253.4"/>
<polygon fill="black" stroke="black" points="180.5,-253.2 177,-243.2 173.5,-253.2 180.5,-253.2"/>
<text text-anchor="middle" x="189.5" y="-264.8" font-family="Times,serif" font-size="14.00">arg</text>
</g>
<!-- 140108669625424&#45;&gt;140108667583168 -->
<g id="edge8" class="edge">
<title>140108669625424&#45;&gt;140108667583168</title>
<path fill="none" stroke="black" d="M166.28,-207.07C156.57,-191.75 142.29,-169.19 132.16,-153.2"/>
<polygon fill="black" stroke="black" points="135.05,-151.23 126.74,-144.65 129.14,-154.97 135.05,-151.23"/>
<text text-anchor="middle" x="159" y="-177.8" font-family="Times,serif" font-size="14.00">1</text>
</g>
<!-- 140108669625520 -->
<g id="node9" class="node">
<title>140108669625520</title>
<ellipse fill="none" stroke="black" cx="120" cy="-41" rx="27" ry="18"/>
<text text-anchor="middle" x="120" y="-37.3" font-family="Times,serif" font-size="14.00">gt</text>
</g>
<!-- 140108667583168&#45;&gt;140108669625520 -->
<g id="edge9" class="edge">
<title>140108667583168&#45;&gt;140108669625520</title>
<path fill="none" stroke="black" d="M120,-109.75C120,-97.55 120,-82.32 120,-69.4"/>
<polygon fill="black" stroke="black" points="123.5,-69.2 120,-59.2 116.5,-69.2 123.5,-69.2"/>
<text text-anchor="middle" x="132.5" y="-80.8" font-family="Times,serif" font-size="14.00">arg</text>
</g>
<!-- 140108669625712 -->
<g id="node10" class="node">
<title>140108669625712</title>
<polygon fill="none" stroke="black" points="325.85,-311.44 391,-299 456.15,-311.44 456.09,-331.56 325.91,-331.56 325.85,-311.44"/>
<text text-anchor="middle" x="391" y="-313.3" font-family="Times,serif" font-size="14.00">test_max</text>
</g>
<!-- 140108669669280 -->
<g id="node11" class="node">
<title>140108669669280</title>
<ellipse fill="none" stroke="black" cx="391" cy="-409" rx="98.58" ry="18"/>
<text text-anchor="middle" x="391" y="-405.3" font-family="Times,serif" font-size="14.00">140108669669280</text>
</g>
<!-- 140108669669280&#45;&gt;140108669625712 -->
<g id="edge10" class="edge">
<title>140108669669280&#45;&gt;140108669625712</title>
<path fill="none" stroke="black" d="M391,-390.65C391,-376.84 391,-357.35 391,-342.04"/>
<polygon fill="black" stroke="black" points="394.5,-341.77 391,-331.77 387.5,-341.77 394.5,-341.77"/>
</g>
</g>
</svg>
