<?xml version="1.0" encoding="UTF-8" standalone="no"?>
<!DOCTYPE svg PUBLIC "-//W3C//DTD SVG 1.1//EN"
 "http://www.w3.org/Graphics/SVG/1.1/DTD/svg11.dtd">
<!-- Generated by graphviz version 2.43.0 (0)
 -->
<!-- Title: %3 Pages: 1 -->
<svg width="373pt" height="1241pt"
 viewBox="0.00 0.00 372.80 1241.00" xmlns="http://www.w3.org/2000/svg" xmlns:xlink="http://www.w3.org/1999/xlink">
<g id="graph0" class="graph" transform="scale(1 1) rotate(0) translate(4 1237)">
<title>%3</title>
<polygon fill="white" stroke="transparent" points="-4,4 -4,-1237 368.8,-1237 368.8,4 -4,4"/>
<text text-anchor="middle" x="182.4" y="-7.8" font-family="Times,serif" font-size="14.00">test_apply</text>
<g id="clust1" class="cluster">
<title>cluster_0</title>
<polygon fill="lightgrey" stroke="lightgrey" points="8,-359 8,-875 292,-875 292,-359 8,-359"/>
<text text-anchor="middle" x="150" y="-859.8" font-family="Times,serif" font-size="14.00">test_add</text>
</g>
<!-- 140534474432320 -->
<g id="node1" class="node">
<title>140534474432320</title>
<polygon fill="none" stroke="black" points="292.11,-1220.56 220,-1233 147.89,-1220.56 147.96,-1200.44 292.04,-1200.44 292.11,-1220.56"/>
<text text-anchor="middle" x="220" y="-1211.3" font-family="Times,serif" font-size="14.00">test_apply</text>
</g>
<!-- 140534474433120 -->
<g id="node3" class="node">
<title>140534474433120</title>
<polygon fill="none" stroke="black" points="51,-1100 86.19,-1134.5 15.81,-1134.5 51,-1100"/>
<text text-anchor="middle" x="51" y="-1119.3" font-family="Times,serif" font-size="14.00">C</text>
</g>
<!-- 140534474432320&#45;&gt;140534474433120 -->
<g id="edge1" class="edge">
<title>140534474432320&#45;&gt;140534474433120</title>
<path fill="none" stroke="black" d="M199.16,-1200.36C182.81,-1189.89 159.34,-1175.36 138,-1164 121.11,-1155.01 101.82,-1146.01 85.7,-1138.84"/>
<polygon fill="black" stroke="black" points="86.69,-1135.45 76.13,-1134.62 83.87,-1141.86 86.69,-1135.45"/>
<text text-anchor="middle" x="168" y="-1167.8" font-family="Times,serif" font-size="14.00">0</text>
</g>
<!-- 140534474434080 -->
<g id="node6" class="node">
<title>140534474434080</title>
<polygon fill="none" stroke="black" points="163,-1100 198.19,-1134.5 127.81,-1134.5 163,-1100"/>
<text text-anchor="middle" x="163" y="-1119.3" font-family="Times,serif" font-size="14.00">C</text>
</g>
<!-- 140534474432320&#45;&gt;140534474434080 -->
<g id="edge4" class="edge">
<title>140534474432320&#45;&gt;140534474434080</title>
<path fill="none" stroke="black" d="M211.34,-1200.33C201.73,-1185.15 186.12,-1160.51 175.25,-1143.35"/>
<polygon fill="black" stroke="black" points="178.08,-1141.27 169.77,-1134.69 172.16,-1145.01 178.08,-1141.27"/>
<text text-anchor="middle" x="201" y="-1167.8" font-family="Times,serif" font-size="14.00">0</text>
</g>
<!-- 140534474435040 -->
<g id="node9" class="node">
<title>140534474435040</title>
<polygon fill="none" stroke="black" points="318,-1100 353.19,-1134.5 282.81,-1134.5 318,-1100"/>
<text text-anchor="middle" x="318" y="-1119.3" font-family="Times,serif" font-size="14.00">C</text>
</g>
<!-- 140534474432320&#45;&gt;140534474435040 -->
<g id="edge7" class="edge">
<title>140534474432320&#45;&gt;140534474435040</title>
<path fill="none" stroke="black" d="M234.88,-1200.33C252.03,-1184.58 280.25,-1158.67 298.97,-1141.47"/>
<polygon fill="black" stroke="black" points="301.36,-1144.03 306.36,-1134.69 296.63,-1138.88 301.36,-1144.03"/>
<text text-anchor="middle" x="276" y="-1167.8" font-family="Times,serif" font-size="14.00">0</text>
</g>
<!-- 140534474432560 -->
<g id="node2" class="node">
<title>140534474432560</title>
<polygon fill="none" stroke="black" points="58,-1233 4,-1233 4,-1197 58,-1197 58,-1233"/>
<text text-anchor="middle" x="31" y="-1211.3" font-family="Times,serif" font-size="14.00">&#39;x&#39;</text>
</g>
<!-- 140534474432560&#45;&gt;140534474433120 -->
<g id="edge2" class="edge">
<title>140534474432560&#45;&gt;140534474433120</title>
<path fill="none" stroke="black" d="M34.86,-1196.65C38.18,-1181.71 42.97,-1160.13 46.47,-1144.37"/>
<polygon fill="black" stroke="black" points="49.9,-1145.07 48.66,-1134.54 43.07,-1143.55 49.9,-1145.07"/>
<text text-anchor="middle" x="47" y="-1167.8" font-family="Times,serif" font-size="14.00">1</text>
</g>
<!-- 140534476464368 -->
<g id="node4" class="node">
<title>140534476464368</title>
<ellipse fill="none" stroke="black" cx="51" cy="-1031" rx="46.59" ry="18"/>
<text text-anchor="middle" x="51" y="-1027.3" font-family="Times,serif" font-size="14.00">getitem</text>
</g>
<!-- 140534474433120&#45;&gt;140534476464368 -->
<g id="edge3" class="edge">
<title>140534474433120&#45;&gt;140534476464368</title>
<path fill="none" stroke="black" d="M51,-1099.75C51,-1087.55 51,-1072.32 51,-1059.4"/>
<polygon fill="black" stroke="black" points="54.5,-1059.2 51,-1049.2 47.5,-1059.2 54.5,-1059.2"/>
<text text-anchor="middle" x="63.5" y="-1070.8" font-family="Times,serif" font-size="14.00">arg</text>
</g>
<!-- 140534474435920 -->
<g id="node11" class="node">
<title>140534474435920</title>
<polygon fill="none" stroke="black" points="150,-916 185.19,-950.5 114.81,-950.5 150,-916"/>
<text text-anchor="middle" x="150" y="-935.3" font-family="Times,serif" font-size="14.00">C</text>
</g>
<!-- 140534476464368&#45;&gt;140534474435920 -->
<g id="edge10" class="edge">
<title>140534476464368&#45;&gt;140534474435920</title>
<path fill="none" stroke="black" d="M68.7,-1013.91C86.16,-998.04 112.77,-973.84 130.75,-957.5"/>
<polygon fill="black" stroke="black" points="133.29,-959.92 138.34,-950.6 128.58,-954.74 133.29,-959.92"/>
<text text-anchor="middle" x="108.5" y="-983.8" font-family="Times,serif" font-size="14.00">a</text>
</g>
<!-- 140534474433520 -->
<g id="node5" class="node">
<title>140534474433520</title>
<polygon fill="none" stroke="black" points="130,-1233 76,-1233 76,-1197 130,-1197 130,-1233"/>
<text text-anchor="middle" x="103" y="-1211.3" font-family="Times,serif" font-size="14.00">&#39;y&#39;</text>
</g>
<!-- 140534474433520&#45;&gt;140534474434080 -->
<g id="edge5" class="edge">
<title>140534474433520&#45;&gt;140534474434080</title>
<path fill="none" stroke="black" d="M110.31,-1196.74C114.83,-1186.81 121.08,-1174.31 128,-1164 133.06,-1156.46 139.41,-1148.8 145.3,-1142.24"/>
<polygon fill="black" stroke="black" points="148.16,-1144.3 152.39,-1134.59 143.02,-1139.54 148.16,-1144.3"/>
<text text-anchor="middle" x="133" y="-1167.8" font-family="Times,serif" font-size="14.00">1</text>
</g>
<!-- 140534476464560 -->
<g id="node7" class="node">
<title>140534476464560</title>
<ellipse fill="none" stroke="black" cx="163" cy="-1031" rx="46.59" ry="18"/>
<text text-anchor="middle" x="163" y="-1027.3" font-family="Times,serif" font-size="14.00">getitem</text>
</g>
<!-- 140534474434080&#45;&gt;140534476464560 -->
<g id="edge6" class="edge">
<title>140534474434080&#45;&gt;140534476464560</title>
<path fill="none" stroke="black" d="M163,-1099.75C163,-1087.55 163,-1072.32 163,-1059.4"/>
<polygon fill="black" stroke="black" points="166.5,-1059.2 163,-1049.2 159.5,-1059.2 166.5,-1059.2"/>
<text text-anchor="middle" x="175.5" y="-1070.8" font-family="Times,serif" font-size="14.00">arg</text>
</g>
<!-- 140534476464560&#45;&gt;140534474435920 -->
<g id="edge11" class="edge">
<title>140534476464560&#45;&gt;140534474435920</title>
<path fill="none" stroke="black" d="M160.49,-1012.65C158.36,-997.85 155.28,-976.54 153.01,-960.83"/>
<polygon fill="black" stroke="black" points="156.42,-959.94 151.52,-950.54 149.49,-960.94 156.42,-959.94"/>
<text text-anchor="middle" x="162" y="-983.8" font-family="Times,serif" font-size="14.00">b</text>
</g>
<!-- 140534474434480 -->
<g id="node8" class="node">
<title>140534474434480</title>
<polygon fill="none" stroke="black" points="364,-1233 310,-1233 310,-1197 364,-1197 364,-1233"/>
<text text-anchor="middle" x="337" y="-1211.3" font-family="Times,serif" font-size="14.00">&#39;z&#39;</text>
</g>
<!-- 140534474434480&#45;&gt;140534474435040 -->
<g id="edge8" class="edge">
<title>140534474434480&#45;&gt;140534474435040</title>
<path fill="none" stroke="black" d="M333.34,-1196.65C330.18,-1181.71 325.63,-1160.13 322.3,-1144.37"/>
<polygon fill="black" stroke="black" points="325.72,-1143.61 320.23,-1134.54 318.87,-1145.05 325.72,-1143.61"/>
<text text-anchor="middle" x="334" y="-1167.8" font-family="Times,serif" font-size="14.00">1</text>
</g>
<!-- 140534476464656 -->
<g id="node10" class="node">
<title>140534476464656</title>
<ellipse fill="none" stroke="black" cx="318" cy="-1031" rx="46.59" ry="18"/>
<text text-anchor="middle" x="318" y="-1027.3" font-family="Times,serif" font-size="14.00">getitem</text>
</g>
<!-- 140534474435040&#45;&gt;140534476464656 -->
<g id="edge9" class="edge">
<title>140534474435040&#45;&gt;140534476464656</title>
<path fill="none" stroke="black" d="M318,-1099.75C318,-1087.55 318,-1072.32 318,-1059.4"/>
<polygon fill="black" stroke="black" points="321.5,-1059.2 318,-1049.2 314.5,-1059.2 321.5,-1059.2"/>
<text text-anchor="middle" x="330.5" y="-1070.8" font-family="Times,serif" font-size="14.00">arg</text>
</g>
<!-- 140534474436880 -->
<g id="node23" class="node">
<title>140534474436880</title>
<polygon fill="none" stroke="black" points="277,-183 312.19,-217.5 241.81,-217.5 277,-183"/>
<text text-anchor="middle" x="277" y="-202.3" font-family="Times,serif" font-size="14.00">C</text>
</g>
<!-- 140534476464656&#45;&gt;140534474436880 -->
<g id="edge25" class="edge">
<title>140534476464656&#45;&gt;140534474436880</title>
<path fill="none" stroke="black" d="M318,-1012.75C318,-994.63 318,-965.31 318,-940 318,-940 318,-940 318,-297 318,-270.54 303.14,-243.31 291.31,-225.84"/>
<polygon fill="black" stroke="black" points="294.14,-223.78 285.5,-217.65 288.43,-227.83 294.14,-223.78"/>
<text text-anchor="middle" x="323" y="-594.8" font-family="Times,serif" font-size="14.00">1</text>
</g>
<!-- 140534477920432 -->
<g id="node12" class="node">
<title>140534477920432</title>
<polygon fill="none" stroke="black" points="211.72,-831.56 150,-844 88.28,-831.56 88.34,-811.44 211.66,-811.44 211.72,-831.56"/>
<text text-anchor="middle" x="150" y="-822.3" font-family="Times,serif" font-size="14.00">test_add</text>
</g>
<!-- 140534474435920&#45;&gt;140534477920432 -->
<g id="edge23" class="edge">
<title>140534474435920&#45;&gt;140534477920432</title>
<path fill="none" stroke="black" d="M150,-915.8C150,-898.06 150,-873.1 150,-854.16"/>
<polygon fill="black" stroke="black" points="153.5,-854.07 150,-844.07 146.5,-854.07 153.5,-854.07"/>
<text text-anchor="middle" x="162.5" y="-886.8" font-family="Times,serif" font-size="14.00">arg</text>
</g>
<!-- 140534474428960 -->
<g id="node14" class="node">
<title>140534474428960</title>
<polygon fill="none" stroke="black" points="225,-711 260.19,-745.5 189.81,-745.5 225,-711"/>
<text text-anchor="middle" x="225" y="-730.3" font-family="Times,serif" font-size="14.00">C</text>
</g>
<!-- 140534477920432&#45;&gt;140534474428960 -->
<g id="edge12" class="edge">
<title>140534477920432&#45;&gt;140534474428960</title>
<path fill="none" stroke="black" d="M161.39,-811.33C174.28,-795.86 195.34,-770.59 209.66,-753.4"/>
<polygon fill="black" stroke="black" points="212.38,-755.61 216.09,-745.69 207,-751.13 212.38,-755.61"/>
<text text-anchor="middle" x="194" y="-778.8" font-family="Times,serif" font-size="14.00">0</text>
</g>
<!-- 140534474430400 -->
<g id="node17" class="node">
<title>140534474430400</title>
<polygon fill="none" stroke="black" points="113,-711 148.19,-745.5 77.81,-745.5 113,-711"/>
<text text-anchor="middle" x="113" y="-730.3" font-family="Times,serif" font-size="14.00">C</text>
</g>
<!-- 140534477920432&#45;&gt;140534474430400 -->
<g id="edge15" class="edge">
<title>140534477920432&#45;&gt;140534474430400</title>
<path fill="none" stroke="black" d="M144.38,-811.33C138.25,-796.43 128.38,-772.42 121.35,-755.31"/>
<polygon fill="black" stroke="black" points="124.43,-753.61 117.39,-745.69 117.96,-756.27 124.43,-753.61"/>
<text text-anchor="middle" x="140" y="-778.8" font-family="Times,serif" font-size="14.00">0</text>
</g>
<!-- 140534474428000 -->
<g id="node13" class="node">
<title>140534474428000</title>
<polygon fill="none" stroke="black" points="284,-844 230,-844 230,-808 284,-808 284,-844"/>
<text text-anchor="middle" x="257" y="-822.3" font-family="Times,serif" font-size="14.00">&#39;a&#39;</text>
</g>
<!-- 140534474428000&#45;&gt;140534474428960 -->
<g id="edge13" class="edge">
<title>140534474428000&#45;&gt;140534474428960</title>
<path fill="none" stroke="black" d="M250.83,-807.65C245.52,-792.71 237.84,-771.13 232.24,-755.37"/>
<polygon fill="black" stroke="black" points="235.4,-753.79 228.75,-745.54 228.8,-756.14 235.4,-753.79"/>
<text text-anchor="middle" x="248" y="-778.8" font-family="Times,serif" font-size="14.00">1</text>
</g>
<!-- 140534476463408 -->
<g id="node15" class="node">
<title>140534476463408</title>
<ellipse fill="none" stroke="black" cx="225" cy="-642" rx="46.59" ry="18"/>
<text text-anchor="middle" x="225" y="-638.3" font-family="Times,serif" font-size="14.00">getitem</text>
</g>
<!-- 140534474428960&#45;&gt;140534476463408 -->
<g id="edge14" class="edge">
<title>140534474428960&#45;&gt;140534476463408</title>
<path fill="none" stroke="black" d="M225,-710.75C225,-698.55 225,-683.32 225,-670.4"/>
<polygon fill="black" stroke="black" points="228.5,-670.2 225,-660.2 221.5,-670.2 228.5,-670.2"/>
<text text-anchor="middle" x="237.5" y="-681.8" font-family="Times,serif" font-size="14.00">arg</text>
</g>
<!-- 140534474431360 -->
<g id="node19" class="node">
<title>140534474431360</title>
<polygon fill="none" stroke="black" points="222,-527 257.19,-561.5 186.81,-561.5 222,-527"/>
<text text-anchor="middle" x="222" y="-546.3" font-family="Times,serif" font-size="14.00">C</text>
</g>
<!-- 140534476463408&#45;&gt;140534474431360 -->
<g id="edge18" class="edge">
<title>140534476463408&#45;&gt;140534474431360</title>
<path fill="none" stroke="black" d="M224.42,-623.65C223.93,-608.85 223.22,-587.54 222.69,-571.83"/>
<polygon fill="black" stroke="black" points="226.18,-571.42 222.35,-561.54 219.19,-571.66 226.18,-571.42"/>
<text text-anchor="middle" x="228" y="-594.8" font-family="Times,serif" font-size="14.00">0</text>
</g>
<!-- 140534474429120 -->
<g id="node16" class="node">
<title>140534474429120</title>
<polygon fill="none" stroke="black" points="70,-844 16,-844 16,-808 70,-808 70,-844"/>
<text text-anchor="middle" x="43" y="-822.3" font-family="Times,serif" font-size="14.00">&#39;b&#39;</text>
</g>
<!-- 140534474429120&#45;&gt;140534474430400 -->
<g id="edge16" class="edge">
<title>140534474429120&#45;&gt;140534474430400</title>
<path fill="none" stroke="black" d="M56.5,-807.65C68.56,-792.13 86.2,-769.46 98.55,-753.58"/>
<polygon fill="black" stroke="black" points="101.42,-755.59 104.8,-745.54 95.9,-751.29 101.42,-755.59"/>
<text text-anchor="middle" x="86" y="-778.8" font-family="Times,serif" font-size="14.00">1</text>
</g>
<!-- 140534476463984 -->
<g id="node18" class="node">
<title>140534476463984</title>
<ellipse fill="none" stroke="black" cx="113" cy="-642" rx="46.59" ry="18"/>
<text text-anchor="middle" x="113" y="-638.3" font-family="Times,serif" font-size="14.00">getitem</text>
</g>
<!-- 140534474430400&#45;&gt;140534476463984 -->
<g id="edge17" class="edge">
<title>140534474430400&#45;&gt;140534476463984</title>
<path fill="none" stroke="black" d="M113,-710.75C113,-698.55 113,-683.32 113,-670.4"/>
<polygon fill="black" stroke="black" points="116.5,-670.2 113,-660.2 109.5,-670.2 116.5,-670.2"/>
<text text-anchor="middle" x="125.5" y="-681.8" font-family="Times,serif" font-size="14.00">arg</text>
</g>
<!-- 140534476463984&#45;&gt;140534474431360 -->
<g id="edge19" class="edge">
<title>140534476463984&#45;&gt;140534474431360</title>
<path fill="none" stroke="black" d="M131.99,-625.32C151.31,-609.37 181.17,-584.71 201.14,-568.22"/>
<polygon fill="black" stroke="black" points="203.55,-570.77 209.03,-561.71 199.09,-565.37 203.55,-570.77"/>
<text text-anchor="middle" x="175" y="-594.8" font-family="Times,serif" font-size="14.00">1</text>
</g>
<!-- 140534476464080 -->
<g id="node20" class="node">
<title>140534476464080</title>
<ellipse fill="none" stroke="black" cx="222" cy="-458" rx="27.9" ry="18"/>
<text text-anchor="middle" x="222" y="-454.3" font-family="Times,serif" font-size="14.00">add</text>
</g>
<!-- 140534474431360&#45;&gt;140534476464080 -->
<g id="edge20" class="edge">
<title>140534474431360&#45;&gt;140534476464080</title>
<path fill="none" stroke="black" d="M222,-526.75C222,-514.55 222,-499.32 222,-486.4"/>
<polygon fill="black" stroke="black" points="225.5,-486.2 222,-476.2 218.5,-486.2 225.5,-486.2"/>
<text text-anchor="middle" x="234.5" y="-497.8" font-family="Times,serif" font-size="14.00">arg</text>
</g>
<!-- 140534476464176 -->
<g id="node21" class="node">
<title>140534476464176</title>
<polygon fill="none" stroke="black" points="160.28,-379.44 222,-367 283.72,-379.44 283.66,-399.56 160.34,-399.56 160.28,-379.44"/>
<text text-anchor="middle" x="222" y="-381.3" font-family="Times,serif" font-size="14.00">test_add</text>
</g>
<!-- 140534476464080&#45;&gt;140534476464176 -->
<g id="edge21" class="edge">
<title>140534476464080&#45;&gt;140534476464176</title>
<path fill="none" stroke="black" d="M222,-439.81C222,-430.87 222,-419.79 222,-410.01"/>
<polygon fill="black" stroke="black" points="225.5,-409.71 222,-399.71 218.5,-409.71 225.5,-409.71"/>
</g>
<!-- 140534476464752 -->
<g id="node22" class="node">
<title>140534476464752</title>
<ellipse fill="none" stroke="black" cx="236" cy="-298" rx="50.09" ry="18"/>
<text text-anchor="middle" x="236" y="-294.3" font-family="Times,serif" font-size="14.00">test_add</text>
</g>
<!-- 140534476464176&#45;&gt;140534476464752 -->
<g id="edge22" class="edge">
<title>140534476464176&#45;&gt;140534476464752</title>
<path fill="none" stroke="black" d="M224.77,-367.21C226.69,-355.52 229.3,-339.69 231.52,-326.22"/>
<polygon fill="black" stroke="black" points="235.02,-326.49 233.19,-316.05 228.11,-325.35 235.02,-326.49"/>
<text text-anchor="middle" x="240" y="-337.8" font-family="Times,serif" font-size="14.00">ret</text>
</g>
<!-- 140534476464752&#45;&gt;140534474436880 -->
<g id="edge24" class="edge">
<title>140534476464752&#45;&gt;140534474436880</title>
<path fill="none" stroke="black" d="M243.71,-280.07C250.56,-265.03 260.58,-243.03 267.84,-227.11"/>
<polygon fill="black" stroke="black" points="271.19,-228.2 272.15,-217.65 264.82,-225.3 271.19,-228.2"/>
<text text-anchor="middle" x="262" y="-250.8" font-family="Times,serif" font-size="14.00">0</text>
</g>
<!-- 140534476464848 -->
<g id="node24" class="node">
<title>140534476464848</title>
<ellipse fill="none" stroke="black" cx="277" cy="-114" rx="28.7" ry="18"/>
<text text-anchor="middle" x="277" y="-110.3" font-family="Times,serif" font-size="14.00">mul</text>
</g>
<!-- 140534474436880&#45;&gt;140534476464848 -->
<g id="edge26" class="edge">
<title>140534474436880&#45;&gt;140534476464848</title>
<path fill="none" stroke="black" d="M277,-182.75C277,-170.55 277,-155.32 277,-142.4"/>
<polygon fill="black" stroke="black" points="280.5,-142.2 277,-132.2 273.5,-142.2 280.5,-142.2"/>
<text text-anchor="middle" x="289.5" y="-153.8" font-family="Times,serif" font-size="14.00">arg</text>
</g>
<!-- 140534476464944 -->
<g id="node25" class="node">
<title>140534476464944</title>
<polygon fill="none" stroke="black" points="204.89,-35.44 277,-23 349.11,-35.44 349.04,-55.56 204.96,-55.56 204.89,-35.44"/>
<text text-anchor="middle" x="277" y="-37.3" font-family="Times,serif" font-size="14.00">test_apply</text>
</g>
<!-- 140534476464848&#45;&gt;140534476464944 -->
<g id="edge27" class="edge">
<title>140534476464848&#45;&gt;140534476464944</title>
<path fill="none" stroke="black" d="M277,-95.81C277,-86.87 277,-75.79 277,-66.01"/>
<polygon fill="black" stroke="black" points="280.5,-65.71 277,-55.71 273.5,-65.71 280.5,-65.71"/>
</g>
</g>
</svg>
